<?xml version="1.0" encoding="UTF-8" standalone="no"?><svg xmlns="http://www.w3.org/2000/svg" xmlns:xlink="http://www.w3.org/1999/xlink" contentScriptType="application/ecmascript" contentStyleType="text/css" height="675px" preserveAspectRatio="none" style="width:1492px;height:675px;" version="1.1" viewBox="0 0 1492 675" width="1492px" zoomAndPan="magnify">
    <defs>
        <filter height="300%" id="fta8d7e" width="300%" x="-1" y="-1">
            <feGaussianBlur result="blurOut" stdDeviation="2.0" />
            <feColorMatrix in="blurOut" result="blurOut2" type="matrix" values="0 0 0 0 0 0 0 0 0 0 0 0 0 0 0 0 0 0 .4 0" />
            <feOffset dx="4.0" dy="4.0" in="blurOut2" result="blurOut3" />
            <feBlend in="SourceGraphic" in2="blurOut3" mode="normal" />
        </filter>
    </defs>
    <g>
        <rect fill="#FFFFFF" filter="url(#fta8d7e)" height="568.3281" style="stroke: #A80036; stroke-width: 1.0;" width="10" x="18" y="49.6094" />
        <rect fill="#FFFFFF" filter="url(#fta8d7e)" height="546.3281" style="stroke: #A80036; stroke-width: 1.0;" width="10" x="205" y="71.6094" />
        <rect fill="#FFFFFF" filter="url(#fta8d7e)" height="485.625" style="stroke: #A80036; stroke-width: 1.0;" width="10" x="318" y="101.9609" />
        <rect fill="#FFFFFF" filter="url(#fta8d7e)" height="151.7578" style="stroke: #A80036; stroke-width: 1.0;" width="10" x="559" y="132.3125" />
        <rect fill="#FFFFFF" filter="url(#fta8d7e)" height="364.2188" style="stroke: #A80036; stroke-width: 1.0;" width="10" x="739" y="162.6641" />
        <rect fill="#FFFFFF" filter="url(#fta8d7e)" height="30.3516" style="stroke: #A80036; stroke-width: 1.0;" width="10" x="961" y="193.0156" />
        <rect fill="#FFFFFF" filter="url(#fta8d7e)" height="242.8125" style="stroke: #A80036; stroke-width: 1.0;" width="10" x="1027.5" y="314.4219" />
        <rect fill="#FFFFFF" filter="url(#fta8d7e)" height="91.0547" style="stroke: #A80036; stroke-width: 1.0;" width="10" x="1196.5" y="375.125" />
        <rect fill="#FFFFFF" filter="url(#fta8d7e)" height="30.3516" style="stroke: #A80036; stroke-width: 1.0;" width="10" x="1297.5" y="405.4766" />
        <rect fill="#FFFFFF" filter="url(#fta8d7e)" height="30.3516" style="stroke: #A80036; stroke-width: 1.0;" width="10" x="1383.5" y="496.5313" />
        <line style="stroke: #A80036; stroke-width: 1.0; stroke-dasharray: 5.0,5.0;" x1="23" x2="23" y1="39.6094" y2="636.2891" />
        <line style="stroke: #A80036; stroke-width: 1.0; stroke-dasharray: 5.0,5.0;" x1="209.5" x2="209.5" y1="39.6094" y2="636.2891" />
        <line style="stroke: #A80036; stroke-width: 1.0; stroke-dasharray: 5.0,5.0;" x1="323" x2="323" y1="39.6094" y2="636.2891" />
        <line style="stroke: #A80036; stroke-width: 1.0; stroke-dasharray: 5.0,5.0;" x1="564" x2="564" y1="39.6094" y2="636.2891" />
        <line style="stroke: #A80036; stroke-width: 1.0; stroke-dasharray: 5.0,5.0;" x1="744" x2="744" y1="39.6094" y2="636.2891" />
        <line style="stroke: #A80036; stroke-width: 1.0; stroke-dasharray: 5.0,5.0;" x1="966" x2="966" y1="39.6094" y2="636.2891" />
        <line style="stroke: #A80036; stroke-width: 1.0; stroke-dasharray: 5.0,5.0;" x1="1032" x2="1032" y1="39.6094" y2="636.2891" />
        <line style="stroke: #A80036; stroke-width: 1.0; stroke-dasharray: 5.0,5.0;" x1="1201.5" x2="1201.5" y1="39.6094" y2="636.2891" />
        <line style="stroke: #A80036; stroke-width: 1.0; stroke-dasharray: 5.0,5.0;" x1="1302.5" x2="1302.5" y1="39.6094" y2="636.2891" />
        <line style="stroke: #A80036; stroke-width: 1.0; stroke-dasharray: 5.0,5.0;" x1="1388.5" x2="1388.5" y1="39.6094" y2="636.2891" />
        <line style="stroke: #A80036; stroke-width: 1.0; stroke-dasharray: 5.0,5.0;" x1="1464.5" x2="1464.5" y1="39.6094" y2="636.2891" />
        <rect fill="#FEFECE" filter="url(#fta8d7e)" height="31.6094" style="stroke: #A80036; stroke-width: 1.5;" width="26" x="8" y="3" /><text fill="#000000" font-family="sans-serif" font-size="14" lengthAdjust="spacingAndGlyphs" textLength="12" x="15" y="24.5332">UI</text>
        <rect fill="#FEFECE" filter="url(#fta8d7e)" height="31.6094" style="stroke: #A80036; stroke-width: 1.5;" width="26" x="8" y="635.2891" /><text fill="#000000" font-family="sans-serif" font-size="14" lengthAdjust="spacingAndGlyphs" textLength="12" x="15" y="656.8223">UI</text>
        <rect fill="#FEFECE" filter="url(#fta8d7e)" height="31.6094" style="stroke: #A80036; stroke-width: 1.5;" width="45" x="185.5" y="3" /><text fill="#000000" font-family="sans-serif" font-size="14" lengthAdjust="spacingAndGlyphs" textLength="31" x="192.5" y="24.5332">MDR</text>
        <rect fill="#FEFECE" filter="url(#fta8d7e)" height="31.6094" style="stroke: #A80036; stroke-width: 1.5;" width="45" x="185.5" y="635.2891" /><text fill="#000000" font-family="sans-serif" font-size="14" lengthAdjust="spacingAndGlyphs" textLength="31" x="192.5" y="656.8223">MDR</text>
        <rect fill="#FEFECE" filter="url(#fta8d7e)" height="31.6094" style="stroke: #A80036; stroke-width: 1.5;" width="76" x="283" y="3" /><text fill="#000000" font-family="sans-serif" font-size="14" lengthAdjust="spacingAndGlyphs" textLength="62" x="290" y="24.5332">Controller</text>
        <rect fill="#FEFECE" filter="url(#fta8d7e)" height="31.6094" style="stroke: #A80036; stroke-width: 1.5;" width="76" x="283" y="635.2891" /><text fill="#000000" font-family="sans-serif" font-size="14" lengthAdjust="spacingAndGlyphs" textLength="62" x="290" y="656.8223">Controller</text>
        <rect fill="#FEFECE" filter="url(#fta8d7e)" height="31.6094" style="stroke: #A80036; stroke-width: 1.5;" width="90" x="517" y="3" /><text fill="#000000" font-family="sans-serif" font-size="14" lengthAdjust="spacingAndGlyphs" textLength="76" x="524" y="24.5332">CreatingDto</text>
        <rect fill="#FEFECE" filter="url(#fta8d7e)" height="31.6094" style="stroke: #A80036; stroke-width: 1.5;" width="90" x="517" y="635.2891" /><text fill="#000000" font-family="sans-serif" font-size="14" lengthAdjust="spacingAndGlyphs" textLength="76" x="524" y="656.8223">CreatingDto</text>
        <rect fill="#FEFECE" filter="url(#fta8d7e)" height="31.6094" style="stroke: #A80036; stroke-width: 1.5;" width="62" x="711" y="3" /><text fill="#000000" font-family="sans-serif" font-size="14" lengthAdjust="spacingAndGlyphs" textLength="48" x="718" y="24.5332">Mapper</text>
        <rect fill="#FEFECE" filter="url(#fta8d7e)" height="31.6094" style="stroke: #A80036; stroke-width: 1.5;" width="62" x="711" y="635.2891" /><text fill="#000000" font-family="sans-serif" font-size="14" lengthAdjust="spacingAndGlyphs" textLength="48" x="718" y="656.8223">Mapper</text>
        <rect fill="#FEFECE" filter="url(#fta8d7e)" height="31.6094" style="stroke: #A80036; stroke-width: 1.5;" width="44" x="942" y="3" /><text fill="#000000" font-family="sans-serif" font-size="14" lengthAdjust="spacingAndGlyphs" textLength="30" x="949" y="24.5332">DTO</text>
        <rect fill="#FEFECE" filter="url(#fta8d7e)" height="31.6094" style="stroke: #A80036; stroke-width: 1.5;" width="44" x="942" y="635.2891" /><text fill="#000000" font-family="sans-serif" font-size="14" lengthAdjust="spacingAndGlyphs" textLength="30" x="949" y="656.8223">DTO</text>
        <rect fill="#FEFECE" filter="url(#fta8d7e)" height="31.6094" style="stroke: #A80036; stroke-width: 1.5;" width="61" x="1000" y="3" /><text fill="#000000" font-family="sans-serif" font-size="14" lengthAdjust="spacingAndGlyphs" textLength="47" x="1007" y="24.5332">Service</text>
        <rect fill="#FEFECE" filter="url(#fta8d7e)" height="31.6094" style="stroke: #A80036; stroke-width: 1.5;" width="61" x="1000" y="635.2891" /><text fill="#000000" font-family="sans-serif" font-size="14" lengthAdjust="spacingAndGlyphs" textLength="47" x="1007" y="656.8223">Service</text>
        <rect fill="#FEFECE" filter="url(#fta8d7e)" height="31.6094" style="stroke: #A80036; stroke-width: 1.5;" width="62" x="1168.5" y="3" /><text fill="#000000" font-family="sans-serif" font-size="14" lengthAdjust="spacingAndGlyphs" textLength="48" x="1175.5" y="24.5332">Domain</text>
        <rect fill="#FEFECE" filter="url(#fta8d7e)" height="31.6094" style="stroke: #A80036; stroke-width: 1.5;" width="62" x="1168.5" y="635.2891" /><text fill="#000000" font-family="sans-serif" font-size="14" lengthAdjust="spacingAndGlyphs" textLength="48" x="1175.5" y="656.8223">Domain</text>
        <rect fill="#FEFECE" filter="url(#fta8d7e)" height="31.6094" style="stroke: #A80036; stroke-width: 1.5;" width="62" x="1269.5" y="3" /><text fill="#000000" font-family="sans-serif" font-size="14" lengthAdjust="spacingAndGlyphs" textLength="48" x="1276.5" y="24.5332">EntityID</text>
        <rect fill="#FEFECE" filter="url(#fta8d7e)" height="31.6094" style="stroke: #A80036; stroke-width: 1.5;" width="62" x="1269.5" y="635.2891" /><text fill="#000000" font-family="sans-serif" font-size="14" lengthAdjust="spacingAndGlyphs" textLength="48" x="1276.5" y="656.8223">EntityID</text>
        <rect fill="#FEFECE" filter="url(#fta8d7e)" height="31.6094" style="stroke: #A80036; stroke-width: 1.5;" width="82" x="1345.5" y="3" /><text fill="#000000" font-family="sans-serif" font-size="14" lengthAdjust="spacingAndGlyphs" textLength="68" x="1352.5" y="24.5332">Repository</text>
        <rect fill="#FEFECE" filter="url(#fta8d7e)" height="31.6094" style="stroke: #A80036; stroke-width: 1.5;" width="82" x="1345.5" y="635.2891" /><text fill="#000000" font-family="sans-serif" font-size="14" lengthAdjust="spacingAndGlyphs" textLength="68" x="1352.5" y="656.8223">Repository</text>
        <rect fill="#FEFECE" filter="url(#fta8d7e)" height="31.6094" style="stroke: #A80036; stroke-width: 1.5;" width="42" x="1441.5" y="3" /><text fill="#000000" font-family="sans-serif" font-size="14" lengthAdjust="spacingAndGlyphs" textLength="28" x="1448.5" y="24.5332">ARS</text>
        <rect fill="#FEFECE" filter="url(#fta8d7e)" height="31.6094" style="stroke: #A80036; stroke-width: 1.5;" width="42" x="1441.5" y="635.2891" /><text fill="#000000" font-family="sans-serif" font-size="14" lengthAdjust="spacingAndGlyphs" textLength="28" x="1448.5" y="656.8223">ARS</text>
        <rect fill="#FFFFFF" filter="url(#fta8d7e)" height="568.3281" style="stroke: #A80036; stroke-width: 1.0;" width="10" x="18" y="49.6094" />
        <rect fill="#FFFFFF" filter="url(#fta8d7e)" height="546.3281" style="stroke: #A80036; stroke-width: 1.0;" width="10" x="205" y="71.6094" />
        <rect fill="#FFFFFF" filter="url(#fta8d7e)" height="485.625" style="stroke: #A80036; stroke-width: 1.0;" width="10" x="318" y="101.9609" />
        <rect fill="#FFFFFF" filter="url(#fta8d7e)" height="151.7578" style="stroke: #A80036; stroke-width: 1.0;" width="10" x="559" y="132.3125" />
        <rect fill="#FFFFFF" filter="url(#fta8d7e)" height="364.2188" style="stroke: #A80036; stroke-width: 1.0;" width="10" x="739" y="162.6641" />
        <rect fill="#FFFFFF" filter="url(#fta8d7e)" height="30.3516" style="stroke: #A80036; stroke-width: 1.0;" width="10" x="961" y="193.0156" />
        <rect fill="#FFFFFF" filter="url(#fta8d7e)" height="242.8125" style="stroke: #A80036; stroke-width: 1.0;" width="10" x="1027.5" y="314.4219" />
        <rect fill="#FFFFFF" filter="url(#fta8d7e)" height="91.0547" style="stroke: #A80036; stroke-width: 1.0;" width="10" x="1196.5" y="375.125" />
        <rect fill="#FFFFFF" filter="url(#fta8d7e)" height="30.3516" style="stroke: #A80036; stroke-width: 1.0;" width="10" x="1297.5" y="405.4766" />
        <rect fill="#FFFFFF" filter="url(#fta8d7e)" height="30.3516" style="stroke: #A80036; stroke-width: 1.0;" width="10" x="1383.5" y="496.5313" />
        <polygon fill="#A80036" points="193,67.6094,203,71.6094,193,75.6094,197,71.6094" style="stroke: #A80036; stroke-width: 1.0;" />
        <line style="stroke: #A80036; stroke-width: 1.0;" x1="28" x2="199" y1="71.6094" y2="71.6094" /><text fill="#000000" font-family="sans-serif" font-size="13" font-weight="bold" lengthAdjust="spacingAndGlyphs" textLength="7" x="35" y="67.1045">1</text><text fill="#000000" font-family="sans-serif" font-size="13" lengthAdjust="spacingAndGlyphs" textLength="94" x="46" y="67.1045">.post(/api/users)</text>
        <polygon fill="#A80036" points="306,97.9609,316,101.9609,306,105.9609,310,101.9609" style="stroke: #A80036; stroke-width: 1.0;" />
        <line style="stroke: #A80036; stroke-width: 1.0;" x1="215" x2="312" y1="101.9609" y2="101.9609" /><text fill="#000000" font-family="sans-serif" font-size="13" font-weight="bold" lengthAdjust="spacingAndGlyphs" textLength="7" x="222" y="97.4561">2</text><text fill="#000000" font-family="sans-serif" font-size="13" lengthAdjust="spacingAndGlyphs" textLength="29" x="233" y="97.4561">.post</text>
        <polygon fill="#A80036" points="547,128.3125,557,132.3125,547,136.3125,551,132.3125" style="stroke: #A80036; stroke-width: 1.0;" />
        <line style="stroke: #A80036; stroke-width: 1.0;" x1="328" x2="553" y1="132.3125" y2="132.3125" /><text fill="#000000" font-family="sans-serif" font-size="13" font-weight="bold" lengthAdjust="spacingAndGlyphs" textLength="7" x="335" y="127.8076">3</text><text fill="#000000" font-family="sans-serif" font-size="13" lengthAdjust="spacingAndGlyphs" textLength="201" x="346" y="127.8076">recebe informação do requestBody</text>
        <polygon fill="#A80036" points="727,158.6641,737,162.6641,727,166.6641,731,162.6641" style="stroke: #A80036; stroke-width: 1.0;" />
        <line style="stroke: #A80036; stroke-width: 1.0;" x1="569" x2="733" y1="162.6641" y2="162.6641" /><text fill="#000000" font-family="sans-serif" font-size="13" font-weight="bold" lengthAdjust="spacingAndGlyphs" textLength="7" x="576" y="158.1592">4</text><text fill="#000000" font-family="sans-serif" font-size="13" lengthAdjust="spacingAndGlyphs" textLength="140" x="587" y="158.1592">toDTO(CreatingUserDto)</text>
        <polygon fill="#A80036" points="949,189.0156,959,193.0156,949,197.0156,953,193.0156" style="stroke: #A80036; stroke-width: 1.0;" />
        <line style="stroke: #A80036; stroke-width: 1.0;" x1="749" x2="955" y1="193.0156" y2="193.0156" /><text fill="#000000" font-family="sans-serif" font-size="13" font-weight="bold" lengthAdjust="spacingAndGlyphs" textLength="7" x="756" y="188.5107">5</text><text fill="#000000" font-family="sans-serif" font-size="13" lengthAdjust="spacingAndGlyphs" textLength="182" x="767" y="188.5107">new Dto(informação de objecto)</text>
        <polygon fill="#A80036" points="760,219.3672,750,223.3672,760,227.3672,756,223.3672" style="stroke: #A80036; stroke-width: 1.0;" />
        <line style="stroke: #A80036; stroke-width: 1.0; stroke-dasharray: 2.0,2.0;" x1="754" x2="965" y1="223.3672" y2="223.3672" /><text fill="#000000" font-family="sans-serif" font-size="13" font-weight="bold" lengthAdjust="spacingAndGlyphs" textLength="7" x="766" y="218.8623">6</text><text fill="#000000" font-family="sans-serif" font-size="13" lengthAdjust="spacingAndGlyphs" textLength="70" x="777" y="218.8623">retorna DTO</text>
        <polygon fill="#A80036" points="580,249.7188,570,253.7188,580,257.7188,576,253.7188" style="stroke: #A80036; stroke-width: 1.0;" />
        <line style="stroke: #A80036; stroke-width: 1.0; stroke-dasharray: 2.0,2.0;" x1="574" x2="738" y1="253.7188" y2="253.7188" /><text fill="#000000" font-family="sans-serif" font-size="13" font-weight="bold" lengthAdjust="spacingAndGlyphs" textLength="7" x="586" y="249.2139">7</text><text fill="#000000" font-family="sans-serif" font-size="13" lengthAdjust="spacingAndGlyphs" textLength="0" x="601" y="249.2139" />
        <polygon fill="#A80036" points="339,280.0703,329,284.0703,339,288.0703,335,284.0703" style="stroke: #A80036; stroke-width: 1.0;" />
        <line style="stroke: #A80036; stroke-width: 1.0; stroke-dasharray: 2.0,2.0;" x1="333" x2="563" y1="284.0703" y2="284.0703" /><text fill="#000000" font-family="sans-serif" font-size="13" font-weight="bold" lengthAdjust="spacingAndGlyphs" textLength="7" x="345" y="279.5654">8</text><text fill="#000000" font-family="sans-serif" font-size="13" lengthAdjust="spacingAndGlyphs" textLength="0" x="360" y="279.5654" />
        <polygon fill="#A80036" points="1015.5,310.4219,1025.5,314.4219,1015.5,318.4219,1019.5,314.4219" style="stroke: #A80036; stroke-width: 1.0;" />
        <line style="stroke: #A80036; stroke-width: 1.0;" x1="328" x2="1021.5" y1="314.4219" y2="314.4219" /><text fill="#000000" font-family="sans-serif" font-size="13" font-weight="bold" lengthAdjust="spacingAndGlyphs" textLength="7" x="335" y="309.917">9</text><text fill="#000000" font-family="sans-serif" font-size="13" lengthAdjust="spacingAndGlyphs" textLength="171" x="346" y="309.917">chamada do serviço de Users</text>
        <polygon fill="#A80036" points="760,340.7734,750,344.7734,760,348.7734,756,344.7734" style="stroke: #A80036; stroke-width: 1.0;" />
        <line style="stroke: #A80036; stroke-width: 1.0;" x1="754" x2="1026.5" y1="344.7734" y2="344.7734" /><text fill="#000000" font-family="sans-serif" font-size="13" font-weight="bold" lengthAdjust="spacingAndGlyphs" textLength="14" x="766" y="340.2686">10</text><text fill="#000000" font-family="sans-serif" font-size="13" lengthAdjust="spacingAndGlyphs" textLength="63" x="784" y="340.2686">toDomain()</text>
        <polygon fill="#A80036" points="1184.5,371.125,1194.5,375.125,1184.5,379.125,1188.5,375.125" style="stroke: #A80036; stroke-width: 1.0;" />
        <line style="stroke: #A80036; stroke-width: 1.0;" x1="749" x2="1190.5" y1="375.125" y2="375.125" /><text fill="#000000" font-family="sans-serif" font-size="13" font-weight="bold" lengthAdjust="spacingAndGlyphs" textLength="14" x="756" y="370.6201">11</text><text fill="#000000" font-family="sans-serif" font-size="13" lengthAdjust="spacingAndGlyphs" textLength="134" x="774" y="370.6201">cria objecto de dominio</text>
        <polygon fill="#A80036" points="1285.5,401.4766,1295.5,405.4766,1285.5,409.4766,1289.5,405.4766" style="stroke: #A80036; stroke-width: 1.0;" />
        <line style="stroke: #A80036; stroke-width: 1.0;" x1="1206.5" x2="1291.5" y1="405.4766" y2="405.4766" /><text fill="#000000" font-family="sans-serif" font-size="13" font-weight="bold" lengthAdjust="spacingAndGlyphs" textLength="14" x="1213.5" y="400.9717">12</text><text fill="#000000" font-family="sans-serif" font-size="13" lengthAdjust="spacingAndGlyphs" textLength="54" x="1231.5" y="400.9717">add GuID</text>
        <polygon fill="#A80036" points="1217.5,431.8281,1207.5,435.8281,1217.5,439.8281,1213.5,435.8281" style="stroke: #A80036; stroke-width: 1.0;" />
        <line style="stroke: #A80036; stroke-width: 1.0; stroke-dasharray: 2.0,2.0;" x1="1211.5" x2="1301.5" y1="435.8281" y2="435.8281" /><text fill="#000000" font-family="sans-serif" font-size="13" font-weight="bold" lengthAdjust="spacingAndGlyphs" textLength="14" x="1223.5" y="431.3232">13</text><text fill="#000000" font-family="sans-serif" font-size="13" lengthAdjust="spacingAndGlyphs" textLength="0" x="1245.5" y="431.3232" />
        <polygon fill="#A80036" points="1048.5,462.1797,1038.5,466.1797,1048.5,470.1797,1044.5,466.1797" style="stroke: #A80036; stroke-width: 1.0;" />
        <line style="stroke: #A80036; stroke-width: 1.0; stroke-dasharray: 2.0,2.0;" x1="1042.5" x2="1200.5" y1="466.1797" y2="466.1797" /><text fill="#000000" font-family="sans-serif" font-size="13" font-weight="bold" lengthAdjust="spacingAndGlyphs" textLength="14" x="1054.5" y="461.6748">14</text><text fill="#000000" font-family="sans-serif" font-size="13" lengthAdjust="spacingAndGlyphs" textLength="117" x="1072.5" y="461.6748">retorna objecto User</text>
        <polygon fill="#A80036" points="1371.5,492.5313,1381.5,496.5313,1371.5,500.5313,1375.5,496.5313" style="stroke: #A80036; stroke-width: 1.0;" />
        <line style="stroke: #A80036; stroke-width: 1.0;" x1="1037.5" x2="1377.5" y1="496.5313" y2="496.5313" /><text fill="#000000" font-family="sans-serif" font-size="13" font-weight="bold" lengthAdjust="spacingAndGlyphs" textLength="14" x="1044.5" y="492.0264">15</text><text fill="#000000" font-family="sans-serif" font-size="13" lengthAdjust="spacingAndGlyphs" textLength="60" x="1062.5" y="492.0264">salva User</text>
        <polygon fill="#A80036" points="755,522.8828,745,526.8828,755,530.8828,751,526.8828" style="stroke: #A80036; stroke-width: 1.0;" />
        <line style="stroke: #A80036; stroke-width: 1.0; stroke-dasharray: 2.0,2.0;" x1="749" x2="1387.5" y1="526.8828" y2="526.8828" /><text fill="#000000" font-family="sans-serif" font-size="13" font-weight="bold" lengthAdjust="spacingAndGlyphs" textLength="14" x="761" y="522.3779">16</text><text fill="#000000" font-family="sans-serif" font-size="13" lengthAdjust="spacingAndGlyphs" textLength="207" x="779" y="522.3779">uso do mapper para retorno de DTO</text>
        <polygon fill="#A80036" points="339,553.2344,329,557.2344,339,561.2344,335,557.2344" style="stroke: #A80036; stroke-width: 1.0;" />
        <line style="stroke: #A80036; stroke-width: 1.0; stroke-dasharray: 2.0,2.0;" x1="333" x2="1031.5" y1="557.2344" y2="557.2344" /><text fill="#000000" font-family="sans-serif" font-size="13" font-weight="bold" lengthAdjust="spacingAndGlyphs" textLength="14" x="345" y="552.7295">17</text><text fill="#000000" font-family="sans-serif" font-size="13" lengthAdjust="spacingAndGlyphs" textLength="119" x="363" y="552.7295">retorna o user criado</text>
        <polygon fill="#A80036" points="226,583.5859,216,587.5859,226,591.5859,222,587.5859" style="stroke: #A80036; stroke-width: 1.0;" />
        <line style="stroke: #A80036; stroke-width: 1.0; stroke-dasharray: 2.0,2.0;" x1="220" x2="322" y1="587.5859" y2="587.5859" /><text fill="#000000" font-family="sans-serif" font-size="13" font-weight="bold" lengthAdjust="spacingAndGlyphs" textLength="14" x="232" y="583.0811">18</text><text fill="#000000" font-family="sans-serif" font-size="13" lengthAdjust="spacingAndGlyphs" textLength="61" x="250" y="583.0811">status 201</text>
        <polygon fill="#A80036" points="34,613.9375,24,617.9375,34,621.9375,30,617.9375" style="stroke: #A80036; stroke-width: 1.0;" />
        <line style="stroke: #A80036; stroke-width: 1.0; stroke-dasharray: 2.0,2.0;" x1="28" x2="209" y1="617.9375" y2="617.9375" /><text fill="#000000" font-family="sans-serif" font-size="13" font-weight="bold" lengthAdjust="spacingAndGlyphs" textLength="14" x="40" y="613.4326">19</text><text fill="#000000" font-family="sans-serif" font-size="13" lengthAdjust="spacingAndGlyphs" textLength="135" x="58" y="613.4326">mensagem de sucesso</text></g>
</svg>