<?xml version="1.0" encoding="UTF-8" standalone="no"?><svg xmlns="http://www.w3.org/2000/svg" xmlns:xlink="http://www.w3.org/1999/xlink" contentScriptType="application/ecmascript" contentStyleType="text/css" height="428px" preserveAspectRatio="none" style="width:895px;height:428px;" version="1.1" viewBox="0 0 895 428" width="895px" zoomAndPan="magnify">
    <defs>
        <filter height="300%" id="fn8s3fz" width="300%" x="-1" y="-1">
            <feGaussianBlur result="blurOut" stdDeviation="2.0" />
            <feColorMatrix in="blurOut" result="blurOut2" type="matrix" values="0 0 0 0 0 0 0 0 0 0 0 0 0 0 0 0 0 0 .4 0" />
            <feOffset dx="4.0" dy="4.0" in="blurOut2" result="blurOut3" />
            <feBlend in="SourceGraphic" in2="blurOut3" mode="normal" />
        </filter>
    </defs>
    <g>
        <rect fill="#FFFFFF" filter="url(#fn8s3fz)" height="321.1641" style="stroke: #A80036; stroke-width: 1.0;" width="10" x="18" y="49.6094" />
        <rect fill="#FFFFFF" filter="url(#fn8s3fz)" height="299.1641" style="stroke: #A80036; stroke-width: 1.0;" width="10" x="249" y="71.6094" />
        <rect fill="#FFFFFF" filter="url(#fn8s3fz)" height="238.4609" style="stroke: #A80036; stroke-width: 1.0;" width="10" x="355" y="101.9609" />
        <rect fill="#FFFFFF" filter="url(#fn8s3fz)" height="177.7578" style="stroke: #A80036; stroke-width: 1.0;" width="10" x="533" y="132.3125" />
        <rect fill="#FFFFFF" filter="url(#fn8s3fz)" height="73.7031" style="stroke: #A80036; stroke-width: 1.0;" width="10" x="784" y="206.0156" />
        <line style="stroke: #A80036; stroke-width: 1.0; stroke-dasharray: 5.0,5.0;" x1="23" x2="23" y1="39.6094" y2="389.125" />
        <line style="stroke: #A80036; stroke-width: 1.0; stroke-dasharray: 5.0,5.0;" x1="253.5" x2="253.5" y1="39.6094" y2="389.125" />
        <line style="stroke: #A80036; stroke-width: 1.0; stroke-dasharray: 5.0,5.0;" x1="360" x2="360" y1="39.6094" y2="389.125" />
        <line style="stroke: #A80036; stroke-width: 1.0; stroke-dasharray: 5.0,5.0;" x1="538" x2="538" y1="39.6094" y2="389.125" />
        <line style="stroke: #A80036; stroke-width: 1.0; stroke-dasharray: 5.0,5.0;" x1="789" x2="789" y1="39.6094" y2="389.125" />
        <rect fill="#FEFECE" filter="url(#fn8s3fz)" height="31.6094" style="stroke: #A80036; stroke-width: 1.5;" width="26" x="8" y="3" /><text fill="#000000" font-family="sans-serif" font-size="14" lengthAdjust="spacingAndGlyphs" textLength="12" x="15" y="24.5332">UI</text>
        <rect fill="#FEFECE" filter="url(#fn8s3fz)" height="31.6094" style="stroke: #A80036; stroke-width: 1.5;" width="26" x="8" y="388.125" /><text fill="#000000" font-family="sans-serif" font-size="14" lengthAdjust="spacingAndGlyphs" textLength="12" x="15" y="409.6582">UI</text>
        <rect fill="#FEFECE" filter="url(#fn8s3fz)" height="31.6094" style="stroke: #A80036; stroke-width: 1.5;" width="45" x="229.5" y="3" /><text fill="#000000" font-family="sans-serif" font-size="14" lengthAdjust="spacingAndGlyphs" textLength="31" x="236.5" y="24.5332">MDR</text>
        <rect fill="#FEFECE" filter="url(#fn8s3fz)" height="31.6094" style="stroke: #A80036; stroke-width: 1.5;" width="45" x="229.5" y="388.125" /><text fill="#000000" font-family="sans-serif" font-size="14" lengthAdjust="spacingAndGlyphs" textLength="31" x="236.5" y="409.6582">MDR</text>
        <rect fill="#FEFECE" filter="url(#fn8s3fz)" height="31.6094" style="stroke: #A80036; stroke-width: 1.5;" width="70" x="323" y="3" /><text fill="#000000" font-family="sans-serif" font-size="14" lengthAdjust="spacingAndGlyphs" textLength="56" x="330" y="24.5332">Caminho</text>
        <rect fill="#FEFECE" filter="url(#fn8s3fz)" height="31.6094" style="stroke: #A80036; stroke-width: 1.5;" width="70" x="323" y="388.125" /><text fill="#000000" font-family="sans-serif" font-size="14" lengthAdjust="spacingAndGlyphs" textLength="56" x="330" y="409.6582">Caminho</text>
        <rect fill="#FEFECE" filter="url(#fn8s3fz)" height="31.6094" style="stroke: #A80036; stroke-width: 1.5;" width="76" x="498" y="3" /><text fill="#000000" font-family="sans-serif" font-size="14" lengthAdjust="spacingAndGlyphs" textLength="62" x="505" y="24.5332">Controller</text>
        <rect fill="#FEFECE" filter="url(#fn8s3fz)" height="31.6094" style="stroke: #A80036; stroke-width: 1.5;" width="76" x="498" y="388.125" /><text fill="#000000" font-family="sans-serif" font-size="14" lengthAdjust="spacingAndGlyphs" textLength="62" x="505" y="409.6582">Controller</text>
        <rect fill="#FEFECE" filter="url(#fn8s3fz)" height="31.6094" style="stroke: #A80036; stroke-width: 1.5;" width="82" x="746" y="3" /><text fill="#000000" font-family="sans-serif" font-size="14" lengthAdjust="spacingAndGlyphs" textLength="68" x="753" y="24.5332">Repository</text>
        <rect fill="#FEFECE" filter="url(#fn8s3fz)" height="31.6094" style="stroke: #A80036; stroke-width: 1.5;" width="82" x="746" y="388.125" /><text fill="#000000" font-family="sans-serif" font-size="14" lengthAdjust="spacingAndGlyphs" textLength="68" x="753" y="409.6582">Repository</text>
        <rect fill="#FFFFFF" filter="url(#fn8s3fz)" height="321.1641" style="stroke: #A80036; stroke-width: 1.0;" width="10" x="18" y="49.6094" />
        <rect fill="#FFFFFF" filter="url(#fn8s3fz)" height="299.1641" style="stroke: #A80036; stroke-width: 1.0;" width="10" x="249" y="71.6094" />
        <rect fill="#FFFFFF" filter="url(#fn8s3fz)" height="238.4609" style="stroke: #A80036; stroke-width: 1.0;" width="10" x="355" y="101.9609" />
        <rect fill="#FFFFFF" filter="url(#fn8s3fz)" height="177.7578" style="stroke: #A80036; stroke-width: 1.0;" width="10" x="533" y="132.3125" />
        <rect fill="#FFFFFF" filter="url(#fn8s3fz)" height="73.7031" style="stroke: #A80036; stroke-width: 1.0;" width="10" x="784" y="206.0156" />
        <polygon fill="#A80036" points="237,67.6094,247,71.6094,237,75.6094,241,71.6094" style="stroke: #A80036; stroke-width: 1.0;" />
        <line style="stroke: #A80036; stroke-width: 1.0;" x1="28" x2="243" y1="71.6094" y2="71.6094" /><text fill="#000000" font-family="sans-serif" font-size="13" font-weight="bold" lengthAdjust="spacingAndGlyphs" textLength="7" x="35" y="67.1045">1</text><text fill="#000000" font-family="sans-serif" font-size="13" lengthAdjust="spacingAndGlyphs" textLength="107" x="46" y="67.1045">get(/api/caminhos)</text>
        <polygon fill="#A80036" points="343,97.9609,353,101.9609,343,105.9609,347,101.9609" style="stroke: #A80036; stroke-width: 1.0;" />
        <line style="stroke: #A80036; stroke-width: 1.0;" x1="259" x2="349" y1="101.9609" y2="101.9609" /><text fill="#000000" font-family="sans-serif" font-size="13" font-weight="bold" lengthAdjust="spacingAndGlyphs" textLength="7" x="266" y="97.4561">2</text><text fill="#000000" font-family="sans-serif" font-size="13" lengthAdjust="spacingAndGlyphs" textLength="18" x="277" y="97.4561">get</text>
        <polygon fill="#A80036" points="521,128.3125,531,132.3125,521,136.3125,525,132.3125" style="stroke: #A80036; stroke-width: 1.0;" />
        <line style="stroke: #A80036; stroke-width: 1.0;" x1="365" x2="527" y1="132.3125" y2="132.3125" /><text fill="#000000" font-family="sans-serif" font-size="13" font-weight="bold" lengthAdjust="spacingAndGlyphs" textLength="7" x="372" y="127.8076">3</text><text fill="#000000" font-family="sans-serif" font-size="13" lengthAdjust="spacingAndGlyphs" textLength="138" x="383" y="127.8076">getCaminhoMaisSeguro</text>
        <line style="stroke: #A80036; stroke-width: 1.0;" x1="543" x2="585" y1="163.0156" y2="163.0156" />
        <line style="stroke: #A80036; stroke-width: 1.0;" x1="585" x2="585" y1="163.0156" y2="176.0156" />
        <line style="stroke: #A80036; stroke-width: 1.0;" x1="544" x2="585" y1="176.0156" y2="176.0156" />
        <polygon fill="#A80036" points="554,172.0156,544,176.0156,554,180.0156,550,176.0156" style="stroke: #A80036; stroke-width: 1.0;" /><text fill="#000000" font-family="sans-serif" font-size="13" font-weight="bold" lengthAdjust="spacingAndGlyphs" textLength="7" x="550" y="158.1592">4</text><text fill="#000000" font-family="sans-serif" font-size="13" lengthAdjust="spacingAndGlyphs" textLength="129" x="561" y="158.1592">recebe o request body</text>
        <polygon fill="#A80036" points="772,202.0156,782,206.0156,772,210.0156,776,206.0156" style="stroke: #A80036; stroke-width: 1.0;" />
        <line style="stroke: #A80036; stroke-width: 1.0;" x1="543" x2="778" y1="206.0156" y2="206.0156" /><text fill="#000000" font-family="sans-serif" font-size="13" font-weight="bold" lengthAdjust="spacingAndGlyphs" textLength="7" x="550" y="201.5107">5</text><text fill="#000000" font-family="sans-serif" font-size="13" lengthAdjust="spacingAndGlyphs" textLength="35" x="561" y="201.5107">findAll</text>
        <line style="stroke: #A80036; stroke-width: 1.0;" x1="794" x2="836" y1="236.7188" y2="236.7188" />
        <line style="stroke: #A80036; stroke-width: 1.0;" x1="836" x2="836" y1="236.7188" y2="249.7188" />
        <line style="stroke: #A80036; stroke-width: 1.0;" x1="795" x2="836" y1="249.7188" y2="249.7188" />
        <polygon fill="#A80036" points="805,245.7188,795,249.7188,805,253.7188,801,249.7188" style="stroke: #A80036; stroke-width: 1.0;" /><text fill="#000000" font-family="sans-serif" font-size="13" font-weight="bold" lengthAdjust="spacingAndGlyphs" textLength="7" x="801" y="231.8623">6</text><text fill="#000000" font-family="sans-serif" font-size="13" lengthAdjust="spacingAndGlyphs" textLength="82" x="812" y="231.8623">consulta a DB</text>
        <polygon fill="#A80036" points="554,275.7188,544,279.7188,554,283.7188,550,279.7188" style="stroke: #A80036; stroke-width: 1.0;" />
        <line style="stroke: #A80036; stroke-width: 1.0; stroke-dasharray: 2.0,2.0;" x1="548" x2="788" y1="279.7188" y2="279.7188" /><text fill="#000000" font-family="sans-serif" font-size="13" font-weight="bold" lengthAdjust="spacingAndGlyphs" textLength="7" x="560" y="275.2139">7</text><text fill="#000000" font-family="sans-serif" font-size="13" lengthAdjust="spacingAndGlyphs" textLength="206" x="571" y="275.2139">anexa o caminho ao response body</text>
        <polygon fill="#A80036" points="376,306.0703,366,310.0703,376,314.0703,372,310.0703" style="stroke: #A80036; stroke-width: 1.0;" />
        <line style="stroke: #A80036; stroke-width: 1.0; stroke-dasharray: 2.0,2.0;" x1="370" x2="537" y1="310.0703" y2="310.0703" /><text fill="#000000" font-family="sans-serif" font-size="13" font-weight="bold" lengthAdjust="spacingAndGlyphs" textLength="7" x="382" y="305.5654">8</text><text fill="#000000" font-family="sans-serif" font-size="13" lengthAdjust="spacingAndGlyphs" textLength="33" x="393" y="305.5654">return</text>
        <polygon fill="#A80036" points="270,336.4219,260,340.4219,270,344.4219,266,340.4219" style="stroke: #A80036; stroke-width: 1.0;" />
        <line style="stroke: #A80036; stroke-width: 1.0; stroke-dasharray: 2.0,2.0;" x1="264" x2="359" y1="340.4219" y2="340.4219" /><text fill="#000000" font-family="sans-serif" font-size="13" font-weight="bold" lengthAdjust="spacingAndGlyphs" textLength="7" x="276" y="335.917">9</text><text fill="#000000" font-family="sans-serif" font-size="13" lengthAdjust="spacingAndGlyphs" textLength="61" x="287" y="335.917">status 200</text>
        <polygon fill="#A80036" points="34,366.7734,24,370.7734,34,374.7734,30,370.7734" style="stroke: #A80036; stroke-width: 1.0;" />
        <line style="stroke: #A80036; stroke-width: 1.0; stroke-dasharray: 2.0,2.0;" x1="28" x2="253" y1="370.7734" y2="370.7734" /><text fill="#000000" font-family="sans-serif" font-size="13" font-weight="bold" lengthAdjust="spacingAndGlyphs" textLength="14" x="40" y="366.2686">10</text><text fill="#000000" font-family="sans-serif" font-size="13" lengthAdjust="spacingAndGlyphs" textLength="179" x="58" y="366.2686">mostra o caminho mais seguro</text></g>
</svg>