<?xml version="1.0" encoding="UTF-8" standalone="no"?><svg xmlns="http://www.w3.org/2000/svg" xmlns:xlink="http://www.w3.org/1999/xlink" contentScriptType="application/ecmascript" contentStyleType="text/css" height="391px" preserveAspectRatio="none" style="width:950px;height:391px;" version="1.1" viewBox="0 0 950 391" width="950px" zoomAndPan="magnify">
    <defs>
        <filter height="300%" id="fcevg5c" width="300%" x="-1" y="-1">
            <feGaussianBlur result="blurOut" stdDeviation="2.0" />
            <feColorMatrix in="blurOut" result="blurOut2" type="matrix" values="0 0 0 0 0 0 0 0 0 0 0 0 0 0 0 0 0 0 .4 0" />
            <feOffset dx="4.0" dy="4.0" in="blurOut2" result="blurOut3" />
            <feBlend in="SourceGraphic" in2="blurOut3" mode="normal" />
        </filter>
    </defs>
    <g>
        <rect fill="#FFFFFF" filter="url(#fcevg5c)" height="190.1094" style="stroke: #A80036; stroke-width: 1.0;" width="10" x="88.5" y="97.6094" />
        <rect fill="#FFFFFF" filter="url(#fcevg5c)" height="46.3516" style="stroke: #A80036; stroke-width: 1.0;" width="10" x="908.5" y="119.6094" />
        <rect fill="#FFFFFF" filter="url(#fcevg5c)" height="30.3516" style="stroke: #A80036; stroke-width: 1.0;" width="10" x="908.5" y="196.6641" />
        <rect fill="#FFFFFF" filter="url(#fcevg5c)" height="30.3516" style="stroke: #A80036; stroke-width: 1.0;" width="10" x="908.5" y="257.3672" />
        <line style="stroke: #A80036; stroke-width: 1.0; stroke-dasharray: 5.0,5.0;" x1="93" x2="93" y1="87.6094" y2="306.0703" />
        <line style="stroke: #A80036; stroke-width: 1.0; stroke-dasharray: 5.0,5.0;" x1="913.5" x2="913.5" y1="87.6094" y2="306.0703" /><text fill="#000000" font-family="sans-serif" font-size="14" lengthAdjust="spacingAndGlyphs" textLength="165" x="8" y="84.5332">Utilizador Não Autenticado</text>
        <ellipse cx="93.5" cy="13" fill="#FEFECE" filter="url(#fcevg5c)" rx="8" ry="8" style="stroke: #A80036; stroke-width: 2.0;" />
        <path d="M93.5,21 L93.5,48 M80.5,29 L106.5,29 M93.5,48 L80.5,63 M93.5,48 L106.5,63 " fill="#FEFECE" filter="url(#fcevg5c)" style="stroke: #A80036; stroke-width: 2.0;" /><text fill="#000000" font-family="sans-serif" font-size="14" lengthAdjust="spacingAndGlyphs" textLength="165" x="8" y="319.6035">Utilizador Não Autenticado</text>
        <ellipse cx="93.5" cy="332.6797" fill="#FEFECE" filter="url(#fcevg5c)" rx="8" ry="8" style="stroke: #A80036; stroke-width: 2.0;" />
        <path d="M93.5,340.6797 L93.5,367.6797 M80.5,348.6797 L106.5,348.6797 M93.5,367.6797 L80.5,382.6797 M93.5,367.6797 L106.5,382.6797 " fill="#FEFECE" filter="url(#fcevg5c)" style="stroke: #A80036; stroke-width: 2.0;" />
        <rect fill="#FEFECE" filter="url(#fcevg5c)" height="31.6094" style="stroke: #A80036; stroke-width: 1.5;" width="60" x="881.5" y="51" /><text fill="#000000" font-family="sans-serif" font-size="14" lengthAdjust="spacingAndGlyphs" textLength="46" x="888.5" y="72.5332">System</text>
        <rect fill="#FEFECE" filter="url(#fcevg5c)" height="31.6094" style="stroke: #A80036; stroke-width: 1.5;" width="60" x="881.5" y="305.0703" /><text fill="#000000" font-family="sans-serif" font-size="14" lengthAdjust="spacingAndGlyphs" textLength="46" x="888.5" y="326.6035">System</text>
        <rect fill="#FFFFFF" filter="url(#fcevg5c)" height="190.1094" style="stroke: #A80036; stroke-width: 1.0;" width="10" x="88.5" y="97.6094" />
        <rect fill="#FFFFFF" filter="url(#fcevg5c)" height="46.3516" style="stroke: #A80036; stroke-width: 1.0;" width="10" x="908.5" y="119.6094" />
        <rect fill="#FFFFFF" filter="url(#fcevg5c)" height="30.3516" style="stroke: #A80036; stroke-width: 1.0;" width="10" x="908.5" y="196.6641" />
        <rect fill="#FFFFFF" filter="url(#fcevg5c)" height="30.3516" style="stroke: #A80036; stroke-width: 1.0;" width="10" x="908.5" y="257.3672" />
        <polygon fill="#A80036" points="896.5,115.6094,906.5,119.6094,896.5,123.6094,900.5,119.6094" style="stroke: #A80036; stroke-width: 1.0;" />
        <line style="stroke: #A80036; stroke-width: 1.0;" x1="98.5" x2="902.5" y1="119.6094" y2="119.6094" /><text fill="#000000" font-family="sans-serif" font-size="13" font-weight="bold" lengthAdjust="spacingAndGlyphs" textLength="7" x="105.5" y="115.1045">1</text><text fill="#000000" font-family="sans-serif" font-size="13" lengthAdjust="spacingAndGlyphs" textLength="237" x="116.5" y="115.1045">Começar registo do utilizador no sistema</text>
        <polygon fill="#A80036" points="109.5,161.9609,99.5,165.9609,109.5,169.9609,105.5,165.9609" style="stroke: #A80036; stroke-width: 1.0;" />
        <line style="stroke: #A80036; stroke-width: 1.0; stroke-dasharray: 2.0,2.0;" x1="103.5" x2="912.5" y1="165.9609" y2="165.9609" /><text fill="#000000" font-family="sans-serif" font-size="13" font-weight="bold" lengthAdjust="spacingAndGlyphs" textLength="7" x="115.5" y="153.6318">2</text><text fill="#000000" font-family="sans-serif" font-size="13" lengthAdjust="spacingAndGlyphs" textLength="444" x="126.5" y="145.4561">Solicita dados do Utilizador para o registo (i.e. obrigatorios: email, password,</text><text fill="#000000" font-family="sans-serif" font-size="13" lengthAdjust="spacingAndGlyphs" textLength="775" x="126.5" y="161.8076">data de nascimento; opcionais: numero de telemovel, descrição do perfil, lista de tags, foto de avatar, pais, cidade e estado de humor)</text>
        <polygon fill="#A80036" points="896.5,192.6641,906.5,196.6641,896.5,200.6641,900.5,196.6641" style="stroke: #A80036; stroke-width: 1.0;" />
        <line style="stroke: #A80036; stroke-width: 1.0;" x1="98.5" x2="902.5" y1="196.6641" y2="196.6641" /><text fill="#000000" font-family="sans-serif" font-size="13" font-weight="bold" lengthAdjust="spacingAndGlyphs" textLength="7" x="105.5" y="192.1592">3</text><text fill="#000000" font-family="sans-serif" font-size="13" lengthAdjust="spacingAndGlyphs" textLength="166" x="116.5" y="192.1592">Insere os dados necessários</text>
        <polygon fill="#A80036" points="109.5,223.0156,99.5,227.0156,109.5,231.0156,105.5,227.0156" style="stroke: #A80036; stroke-width: 1.0;" />
        <line style="stroke: #A80036; stroke-width: 1.0; stroke-dasharray: 2.0,2.0;" x1="103.5" x2="912.5" y1="227.0156" y2="227.0156" /><text fill="#000000" font-family="sans-serif" font-size="13" font-weight="bold" lengthAdjust="spacingAndGlyphs" textLength="7" x="115.5" y="222.5107">4</text><text fill="#000000" font-family="sans-serif" font-size="13" lengthAdjust="spacingAndGlyphs" textLength="192" x="126.5" y="222.5107">Valida dados e pede confirmação</text>
        <polygon fill="#A80036" points="896.5,253.3672,906.5,257.3672,896.5,261.3672,900.5,257.3672" style="stroke: #A80036; stroke-width: 1.0;" />
        <line style="stroke: #A80036; stroke-width: 1.0;" x1="98.5" x2="902.5" y1="257.3672" y2="257.3672" /><text fill="#000000" font-family="sans-serif" font-size="13" font-weight="bold" lengthAdjust="spacingAndGlyphs" textLength="7" x="105.5" y="252.8623">5</text><text fill="#000000" font-family="sans-serif" font-size="13" lengthAdjust="spacingAndGlyphs" textLength="51" x="116.5" y="252.8623">Confirma</text>
        <polygon fill="#A80036" points="104.5,283.7188,94.5,287.7188,104.5,291.7188,100.5,287.7188" style="stroke: #A80036; stroke-width: 1.0;" />
        <line style="stroke: #A80036; stroke-width: 1.0; stroke-dasharray: 2.0,2.0;" x1="98.5" x2="912.5" y1="287.7188" y2="287.7188" /><text fill="#000000" font-family="sans-serif" font-size="13" font-weight="bold" lengthAdjust="spacingAndGlyphs" textLength="7" x="110.5" y="283.2139">6</text><text fill="#000000" font-family="sans-serif" font-size="13" lengthAdjust="spacingAndGlyphs" textLength="318" x="121.5" y="283.2139">Regista os dados e informa de operação bem sucedida</text></g>
</svg>