<?xml version="1.0" encoding="UTF-8" standalone="no"?><svg xmlns="http://www.w3.org/2000/svg" xmlns:xlink="http://www.w3.org/1999/xlink" contentScriptType="application/ecmascript" contentStyleType="text/css" height="297px" preserveAspectRatio="none" style="width:683px;height:297px;" version="1.1" viewBox="0 0 683 297" width="683px" zoomAndPan="magnify">
    <defs>
        <filter height="300%" id="f319jxv" width="300%" x="-1" y="-1">
            <feGaussianBlur result="blurOut" stdDeviation="2.0" />
            <feColorMatrix in="blurOut" result="blurOut2" type="matrix" values="0 0 0 0 0 0 0 0 0 0 0 0 0 0 0 0 0 0 .4 0" />
            <feOffset dx="4.0" dy="4.0" in="blurOut2" result="blurOut3" />
            <feBlend in="SourceGraphic" in2="blurOut3" mode="normal" />
        </filter>
    </defs>
    <g>
        <rect fill="#FFFFFF" filter="url(#f319jxv)" height="95.7031" style="stroke: #A80036; stroke-width: 1.0;" width="10" x="34.5" y="97.6094" />
        <rect fill="#FFFFFF" filter="url(#f319jxv)" height="73.7031" style="stroke: #A80036; stroke-width: 1.0;" width="10" x="421.5" y="119.6094" />
        <line style="stroke: #A80036; stroke-width: 1.0; stroke-dasharray: 5.0,5.0;" x1="39" x2="39" y1="87.6094" y2="211.6641" />
        <line style="stroke: #A80036; stroke-width: 1.0; stroke-dasharray: 5.0,5.0;" x1="426.5" x2="426.5" y1="87.6094" y2="211.6641" /><text fill="#000000" font-family="sans-serif" font-size="14" lengthAdjust="spacingAndGlyphs" textLength="57" x="8" y="84.5332">Utilizador</text>
        <ellipse cx="39.5" cy="13" fill="#FEFECE" filter="url(#f319jxv)" rx="8" ry="8" style="stroke: #A80036; stroke-width: 2.0;" />
        <path d="M39.5,21 L39.5,48 M26.5,29 L52.5,29 M39.5,48 L26.5,63 M39.5,48 L52.5,63 " fill="#FEFECE" filter="url(#f319jxv)" style="stroke: #A80036; stroke-width: 2.0;" /><text fill="#000000" font-family="sans-serif" font-size="14" lengthAdjust="spacingAndGlyphs" textLength="57" x="8" y="225.1973">Utilizador</text>
        <ellipse cx="39.5" cy="238.2734" fill="#FEFECE" filter="url(#f319jxv)" rx="8" ry="8" style="stroke: #A80036; stroke-width: 2.0;" />
        <path d="M39.5,246.2734 L39.5,273.2734 M26.5,254.2734 L52.5,254.2734 M39.5,273.2734 L26.5,288.2734 M39.5,273.2734 L52.5,288.2734 " fill="#FEFECE" filter="url(#f319jxv)" style="stroke: #A80036; stroke-width: 2.0;" />
        <rect fill="#FEFECE" filter="url(#f319jxv)" height="31.6094" style="stroke: #A80036; stroke-width: 1.5;" width="60" x="394.5" y="51" /><text fill="#000000" font-family="sans-serif" font-size="14" lengthAdjust="spacingAndGlyphs" textLength="46" x="401.5" y="72.5332">System</text>
        <rect fill="#FEFECE" filter="url(#f319jxv)" height="31.6094" style="stroke: #A80036; stroke-width: 1.5;" width="60" x="394.5" y="210.6641" /><text fill="#000000" font-family="sans-serif" font-size="14" lengthAdjust="spacingAndGlyphs" textLength="46" x="401.5" y="232.1973">System</text>
        <rect fill="#FFFFFF" filter="url(#f319jxv)" height="95.7031" style="stroke: #A80036; stroke-width: 1.0;" width="10" x="34.5" y="97.6094" />
        <rect fill="#FFFFFF" filter="url(#f319jxv)" height="73.7031" style="stroke: #A80036; stroke-width: 1.0;" width="10" x="421.5" y="119.6094" />
        <polygon fill="#A80036" points="409.5,115.6094,419.5,119.6094,409.5,123.6094,413.5,119.6094" style="stroke: #A80036; stroke-width: 1.0;" />
        <line style="stroke: #A80036; stroke-width: 1.0;" x1="44.5" x2="415.5" y1="119.6094" y2="119.6094" /><text fill="#000000" font-family="sans-serif" font-size="13" font-weight="bold" lengthAdjust="spacingAndGlyphs" textLength="7" x="51.5" y="115.1045">1</text><text fill="#000000" font-family="sans-serif" font-size="13" lengthAdjust="spacingAndGlyphs" textLength="347" x="62.5" y="115.1045">Consultar o caminho mais seguro até determinado utilizador</text>
        <line style="stroke: #A80036; stroke-width: 1.0;" x1="431.5" x2="473.5" y1="150.3125" y2="150.3125" />
        <line style="stroke: #A80036; stroke-width: 1.0;" x1="473.5" x2="473.5" y1="150.3125" y2="163.3125" />
        <line style="stroke: #A80036; stroke-width: 1.0;" x1="432.5" x2="473.5" y1="163.3125" y2="163.3125" />
        <polygon fill="#A80036" points="442.5,159.3125,432.5,163.3125,442.5,167.3125,438.5,163.3125" style="stroke: #A80036; stroke-width: 1.0;" /><text fill="#000000" font-family="sans-serif" font-size="13" font-weight="bold" lengthAdjust="spacingAndGlyphs" textLength="7" x="438.5" y="145.4561">2</text><text fill="#000000" font-family="sans-serif" font-size="13" lengthAdjust="spacingAndGlyphs" textLength="233" x="449.5" y="145.4561">Sucesso na execução da funcionalidade</text>
        <polygon fill="#A80036" points="50.5,189.3125,40.5,193.3125,50.5,197.3125,46.5,193.3125" style="stroke: #A80036; stroke-width: 1.0;" />
        <line style="stroke: #A80036; stroke-width: 1.0; stroke-dasharray: 2.0,2.0;" x1="44.5" x2="425.5" y1="193.3125" y2="193.3125" /><text fill="#000000" font-family="sans-serif" font-size="13" font-weight="bold" lengthAdjust="spacingAndGlyphs" textLength="7" x="56.5" y="188.8076">3</text><text fill="#000000" font-family="sans-serif" font-size="13" lengthAdjust="spacingAndGlyphs" textLength="236" x="67.5" y="188.8076">Mostra o caminho resultante da consulta</text></g>
</svg>