<?xml version="1.0" encoding="UTF-8" standalone="no"?><svg xmlns="http://www.w3.org/2000/svg" xmlns:xlink="http://www.w3.org/1999/xlink" contentScriptType="application/ecmascript" contentStyleType="text/css" height="297px" preserveAspectRatio="none" style="width:661px;height:297px;" version="1.1" viewBox="0 0 661 297" width="661px" zoomAndPan="magnify">
    <defs>
        <filter height="300%" id="fidh2br" width="300%" x="-1" y="-1">
            <feGaussianBlur result="blurOut" stdDeviation="2.0" />
            <feColorMatrix in="blurOut" result="blurOut2" type="matrix" values="0 0 0 0 0 0 0 0 0 0 0 0 0 0 0 0 0 0 .4 0" />
            <feOffset dx="4.0" dy="4.0" in="blurOut2" result="blurOut3" />
            <feBlend in="SourceGraphic" in2="blurOut3" mode="normal" />
        </filter>
    </defs>
    <g>
        <rect fill="#FFFFFF" filter="url(#fidh2br)" height="95.7031" style="stroke: #A80036; stroke-width: 1.0;" width="10" x="74" y="97.6094" />
        <rect fill="#FFFFFF" filter="url(#fidh2br)" height="73.7031" style="stroke: #A80036; stroke-width: 1.0;" width="10" x="437" y="119.6094" />
        <line style="stroke: #A80036; stroke-width: 1.0; stroke-dasharray: 5.0,5.0;" x1="79" x2="79" y1="87.6094" y2="211.6641" />
        <line style="stroke: #A80036; stroke-width: 1.0; stroke-dasharray: 5.0,5.0;" x1="442" x2="442" y1="87.6094" y2="211.6641" /><text fill="#000000" font-family="sans-serif" font-size="14" lengthAdjust="spacingAndGlyphs" textLength="136" x="8" y="84.5332">Utilizador Autenticado</text>
        <ellipse cx="79" cy="13" fill="#FEFECE" filter="url(#fidh2br)" rx="8" ry="8" style="stroke: #A80036; stroke-width: 2.0;" />
        <path d="M79,21 L79,48 M66,29 L92,29 M79,48 L66,63 M79,48 L92,63 " fill="#FEFECE" filter="url(#fidh2br)" style="stroke: #A80036; stroke-width: 2.0;" /><text fill="#000000" font-family="sans-serif" font-size="14" lengthAdjust="spacingAndGlyphs" textLength="136" x="8" y="225.1973">Utilizador Autenticado</text>
        <ellipse cx="79" cy="238.2734" fill="#FEFECE" filter="url(#fidh2br)" rx="8" ry="8" style="stroke: #A80036; stroke-width: 2.0;" />
        <path d="M79,246.2734 L79,273.2734 M66,254.2734 L92,254.2734 M79,273.2734 L66,288.2734 M79,273.2734 L92,288.2734 " fill="#FEFECE" filter="url(#fidh2br)" style="stroke: #A80036; stroke-width: 2.0;" />
        <rect fill="#FEFECE" filter="url(#fidh2br)" height="31.6094" style="stroke: #A80036; stroke-width: 1.5;" width="60" x="410" y="51" /><text fill="#000000" font-family="sans-serif" font-size="14" lengthAdjust="spacingAndGlyphs" textLength="46" x="417" y="72.5332">System</text>
        <rect fill="#FEFECE" filter="url(#fidh2br)" height="31.6094" style="stroke: #A80036; stroke-width: 1.5;" width="60" x="410" y="210.6641" /><text fill="#000000" font-family="sans-serif" font-size="14" lengthAdjust="spacingAndGlyphs" textLength="46" x="417" y="232.1973">System</text>
        <rect fill="#FFFFFF" filter="url(#fidh2br)" height="95.7031" style="stroke: #A80036; stroke-width: 1.0;" width="10" x="74" y="97.6094" />
        <rect fill="#FFFFFF" filter="url(#fidh2br)" height="73.7031" style="stroke: #A80036; stroke-width: 1.0;" width="10" x="437" y="119.6094" />
        <polygon fill="#A80036" points="425,115.6094,435,119.6094,425,123.6094,429,119.6094" style="stroke: #A80036; stroke-width: 1.0;" />
        <line style="stroke: #A80036; stroke-width: 1.0;" x1="84" x2="431" y1="119.6094" y2="119.6094" /><text fill="#000000" font-family="sans-serif" font-size="13" font-weight="bold" lengthAdjust="spacingAndGlyphs" textLength="7" x="91" y="115.1045">1</text><text fill="#000000" font-family="sans-serif" font-size="13" lengthAdjust="spacingAndGlyphs" textLength="323" x="102" y="115.1045">Inicia consulta da lista de pedidos de ligação pendentes</text>
        <line style="stroke: #A80036; stroke-width: 1.0;" x1="447" x2="489" y1="150.3125" y2="150.3125" />
        <line style="stroke: #A80036; stroke-width: 1.0;" x1="489" x2="489" y1="150.3125" y2="163.3125" />
        <line style="stroke: #A80036; stroke-width: 1.0;" x1="448" x2="489" y1="163.3125" y2="163.3125" />
        <polygon fill="#A80036" points="458,159.3125,448,163.3125,458,167.3125,454,163.3125" style="stroke: #A80036; stroke-width: 1.0;" /><text fill="#000000" font-family="sans-serif" font-size="13" font-weight="bold" lengthAdjust="spacingAndGlyphs" textLength="7" x="454" y="145.4561">2</text><text fill="#000000" font-family="sans-serif" font-size="13" lengthAdjust="spacingAndGlyphs" textLength="195" x="465" y="145.4561">consulta executada com sucesso</text>
        <polygon fill="#A80036" points="90,189.3125,80,193.3125,90,197.3125,86,193.3125" style="stroke: #A80036; stroke-width: 1.0;" />
        <line style="stroke: #A80036; stroke-width: 1.0; stroke-dasharray: 2.0,2.0;" x1="84" x2="441" y1="193.3125" y2="193.3125" /><text fill="#000000" font-family="sans-serif" font-size="13" font-weight="bold" lengthAdjust="spacingAndGlyphs" textLength="7" x="96" y="188.8076">3</text><text fill="#000000" font-family="sans-serif" font-size="13" lengthAdjust="spacingAndGlyphs" textLength="251" x="107" y="188.8076">apresenta os pedidos de ligação pendentes</text></g>
</svg>