<?xml version="1.0" encoding="UTF-8" standalone="no"?><svg xmlns="http://www.w3.org/2000/svg" xmlns:xlink="http://www.w3.org/1999/xlink" contentScriptType="application/ecmascript" contentStyleType="text/css" height="297px" preserveAspectRatio="none" style="width:770px;height:297px;" version="1.1" viewBox="0 0 770 297" width="770px" zoomAndPan="magnify">
    <defs>
        <filter height="300%" id="f23zaej" width="300%" x="-1" y="-1">
            <feGaussianBlur result="blurOut" stdDeviation="2.0" />
            <feColorMatrix in="blurOut" result="blurOut2" type="matrix" values="0 0 0 0 0 0 0 0 0 0 0 0 0 0 0 0 0 0 .4 0" />
            <feOffset dx="4.0" dy="4.0" in="blurOut2" result="blurOut3" />
            <feBlend in="SourceGraphic" in2="blurOut3" mode="normal" />
        </filter>
    </defs>
    <g>
        <rect fill="#FFFFFF" filter="url(#f23zaej)" height="95.7031" style="stroke: #A80036; stroke-width: 1.0;" width="10" x="157" y="97.6094" />
        <rect fill="#FFFFFF" filter="url(#f23zaej)" height="73.7031" style="stroke: #A80036; stroke-width: 1.0;" width="10" x="508" y="119.6094" />
        <line style="stroke: #A80036; stroke-width: 1.0; stroke-dasharray: 5.0,5.0;" x1="162" x2="162" y1="87.6094" y2="211.6641" />
        <line style="stroke: #A80036; stroke-width: 1.0; stroke-dasharray: 5.0,5.0;" x1="513" x2="513" y1="87.6094" y2="211.6641" /><text fill="#000000" font-family="sans-serif" font-size="14" lengthAdjust="spacingAndGlyphs" textLength="302" x="8" y="84.5332">Utilizador autenticado/Utilizador não autenticado</text>
        <ellipse cx="162" cy="13" fill="#FEFECE" filter="url(#f23zaej)" rx="8" ry="8" style="stroke: #A80036; stroke-width: 2.0;" />
        <path d="M162,21 L162,48 M149,29 L175,29 M162,48 L149,63 M162,48 L175,63 " fill="#FEFECE" filter="url(#f23zaej)" style="stroke: #A80036; stroke-width: 2.0;" /><text fill="#000000" font-family="sans-serif" font-size="14" lengthAdjust="spacingAndGlyphs" textLength="302" x="8" y="225.1973">Utilizador autenticado/Utilizador não autenticado</text>
        <ellipse cx="162" cy="238.2734" fill="#FEFECE" filter="url(#f23zaej)" rx="8" ry="8" style="stroke: #A80036; stroke-width: 2.0;" />
        <path d="M162,246.2734 L162,273.2734 M149,254.2734 L175,254.2734 M162,273.2734 L149,288.2734 M162,273.2734 L175,288.2734 " fill="#FEFECE" filter="url(#f23zaej)" style="stroke: #A80036; stroke-width: 2.0;" />
        <rect fill="#FEFECE" filter="url(#f23zaej)" height="31.6094" style="stroke: #A80036; stroke-width: 1.5;" width="30" x="496" y="51" /><text fill="#000000" font-family="sans-serif" font-size="14" lengthAdjust="spacingAndGlyphs" textLength="16" x="503" y="72.5332">:UI</text>
        <rect fill="#FEFECE" filter="url(#f23zaej)" height="31.6094" style="stroke: #A80036; stroke-width: 1.5;" width="30" x="496" y="210.6641" /><text fill="#000000" font-family="sans-serif" font-size="14" lengthAdjust="spacingAndGlyphs" textLength="16" x="503" y="232.1973">:UI</text>
        <rect fill="#FFFFFF" filter="url(#f23zaej)" height="95.7031" style="stroke: #A80036; stroke-width: 1.0;" width="10" x="157" y="97.6094" />
        <rect fill="#FFFFFF" filter="url(#f23zaej)" height="73.7031" style="stroke: #A80036; stroke-width: 1.0;" width="10" x="508" y="119.6094" />
        <polygon fill="#A80036" points="496,115.6094,506,119.6094,496,123.6094,500,119.6094" style="stroke: #A80036; stroke-width: 1.0;" />
        <line style="stroke: #A80036; stroke-width: 1.0;" x1="167" x2="502" y1="119.6094" y2="119.6094" /><text fill="#000000" font-family="sans-serif" font-size="13" font-weight="bold" lengthAdjust="spacingAndGlyphs" textLength="7" x="174" y="115.1045">1</text><text fill="#000000" font-family="sans-serif" font-size="13" lengthAdjust="spacingAndGlyphs" textLength="311" x="185" y="115.1045">Consultar Tag cloud das tags de todos os utilizadores</text>
        <line style="stroke: #A80036; stroke-width: 1.0;" x1="518" x2="560" y1="150.3125" y2="150.3125" />
        <line style="stroke: #A80036; stroke-width: 1.0;" x1="560" x2="560" y1="150.3125" y2="163.3125" />
        <line style="stroke: #A80036; stroke-width: 1.0;" x1="519" x2="560" y1="163.3125" y2="163.3125" />
        <polygon fill="#A80036" points="529,159.3125,519,163.3125,529,167.3125,525,163.3125" style="stroke: #A80036; stroke-width: 1.0;" /><text fill="#000000" font-family="sans-serif" font-size="13" font-weight="bold" lengthAdjust="spacingAndGlyphs" textLength="7" x="525" y="145.4561">2</text><text fill="#000000" font-family="sans-serif" font-size="13" lengthAdjust="spacingAndGlyphs" textLength="233" x="536" y="145.4561">Sucesso na execução da funcionalidade</text>
        <polygon fill="#A80036" points="173,189.3125,163,193.3125,173,197.3125,169,193.3125" style="stroke: #A80036; stroke-width: 1.0;" />
        <line style="stroke: #A80036; stroke-width: 1.0; stroke-dasharray: 2.0,2.0;" x1="167" x2="512" y1="193.3125" y2="193.3125" /><text fill="#000000" font-family="sans-serif" font-size="13" font-weight="bold" lengthAdjust="spacingAndGlyphs" textLength="7" x="179" y="188.8076">3</text><text fill="#000000" font-family="sans-serif" font-size="13" lengthAdjust="spacingAndGlyphs" textLength="245" x="190" y="188.8076">Mostra a Tag Cloud resultante da consulta</text></g>
</svg>